name C:\Users\u0101727\Documents\MyRepositories\upper-imu-dc\Results\main_tracking\Case_22\SHRUG01_angularVelocities_groundFrame.mot
datacolumns 4
datarows 129
range 0.71000000 1.99000000
endheader 
time	radius_imu_x	radius_imu_y	radius_imu_z	
          0.71000000	         -0.13700854	          0.53036551	         -0.15131078	
          0.72000000	         -0.17019521	          0.52889697	         -0.14661869	
          0.73000000	         -0.17842231	          0.52522211	         -0.14128744	
          0.74000000	         -0.16754194	          0.50665761	         -0.13214776	
          0.75000000	         -0.14220753	          0.46279978	         -0.11617056	
          0.76000000	         -0.10705173	          0.39205871	         -0.09301114	
          0.77000000	         -0.06720516	          0.30207456	         -0.06481893	
          0.78000000	         -0.02809404	          0.20750484	         -0.03580568	
          0.79000000	          0.00561006	          0.12352863	         -0.01043027	
          0.80000000	          0.03101451	          0.05972284	          0.00826668	
          0.81000000	          0.04744327	          0.01686886	          0.01960175	
          0.82000000	          0.05593295	         -0.01122747	          0.02476284	
          0.83000000	          0.05826656	         -0.03376204	          0.02588109	
          0.84000000	          0.05591381	         -0.05817331	          0.02478107	
          0.85000000	          0.04954269	         -0.08793159	          0.02242456	
          0.86000000	          0.03909752	         -0.12263485	          0.01893183	
          0.87000000	          0.02423917	         -0.16004722	          0.01416944	
          0.88000000	          0.00481152	         -0.19787920	          0.00818901	
          0.89000000	         -0.01884664	         -0.23462733	          0.00139198	
          0.90000000	         -0.04580654	         -0.27008170	         -0.00529349	
          0.91000000	         -0.07491539	         -0.30345786	         -0.01102100	
          0.92000000	         -0.10525186	         -0.33141472	         -0.01564476	
          0.93000000	         -0.13643290	         -0.34739674	         -0.01998468	
          0.94000000	         -0.16859267	         -0.34254443	         -0.02577751	
          0.95000000	         -0.20197195	         -0.30873798	         -0.03491091	
          0.96000000	         -0.23647738	         -0.24159326	         -0.04862764	
          0.97000000	         -0.27139628	         -0.14224750	         -0.06695448	
          0.98000000	         -0.30530317	         -0.01795229	         -0.08826830	
          0.99000000	         -0.33624968	          0.11920576	         -0.10939214	
          1.00000000	         -0.36212043	          0.25456865	         -0.12599095	
          1.01000000	         -0.38109508	          0.37381855	         -0.13336470	
          1.02000000	         -0.39215991	          0.46614460	         -0.12759172	
          1.03000000	         -0.39557427	          0.52708819	         -0.10679519	
          1.04000000	         -0.39309706	          0.55995559	         -0.07203550	
          1.05000000	         -0.38776955	          0.57461698	         -0.02723881	
          1.06000000	         -0.38326231	          0.58384554	          0.02191347	
          1.07000000	         -0.38302965	          0.59878352	          0.06960801	
          1.08000000	         -0.38957415	          0.62536882	          0.11132612	
          1.09000000	         -0.40400759	          0.66266862	          0.14467311	
          1.10000000	         -0.42595132	          0.70315722	          0.16954877	
          1.11000000	         -0.45376277	          0.73460292	          0.18777876	
          1.12000000	         -0.48501126	          0.74303256	          0.20234999	
          1.13000000	         -0.51705162	          0.71594948	          0.21650547	
          1.14000000	         -0.54755592	          0.64510372	          0.23291568	
          1.15000000	         -0.57493137	          0.52846051	          0.25307194	
          1.16000000	         -0.59847705	          0.37065239	          0.27725000	
          1.17000000	         -0.61805959	          0.18103893	          0.30542676	
          1.18000000	         -0.63334555	         -0.03019679	          0.33898921	
          1.19000000	         -0.64299187	         -0.25599094	          0.38239029	
          1.20000000	         -0.64432509	         -0.49409949	          0.44352608	
          1.21000000	         -0.63383431	         -0.74536912	          0.53185711	
          1.22000000	         -0.60894366	         -1.00677215	          0.65306284	
          1.23000000	         -0.57080082	         -1.25717526	          0.79624913	
          1.24000000	         -0.52940439	         -1.43457778	          0.92113855	
          1.25000000	         -0.50588556	         -1.38317517	          0.88712355	
          1.26000000	         -0.49244356	         -1.17464126	          0.74842261	
          1.27000000	         -0.46070155	         -1.02992537	          0.71090012	
          1.28000000	         -0.44214187	         -0.78898718	          0.60653285	
          1.29000000	         -0.45602110	         -0.38666615	          0.34569974	
          1.30000000	         -0.43368625	         -0.03716884	          0.13612147	
          1.31000000	         -0.35707688	          0.12917350	          0.06502872	
          1.32000000	         -0.23627641	          0.07072510	          0.16205425	
          1.33000000	         -0.09195268	         -0.11816956	          0.36215884	
          1.34000000	         -0.00671554	         -0.05602341	          0.40592341	
          1.35000000	          0.03509037	          0.18973464	          0.25654191	
          1.36000000	          0.05592166	          0.58482944	          0.12671654	
          1.37000000	         -0.00560997	          1.22812406	         -0.23542012	
          1.38000000	         -0.05198764	          1.81978291	         -0.51960924	
          1.39000000	         -0.06738395	          2.21126276	         -0.63918311	
          1.40000000	         -0.06507784	          2.44600112	         -0.65143037	
          1.41000000	         -0.05892706	          2.57608647	         -0.61104359	
          1.42000000	         -0.05708826	          2.63655681	         -0.55468100	
          1.43000000	         -0.06170272	          2.64366275	         -0.50024367	
          1.44000000	         -0.07128705	          2.60306954	         -0.45370210	
          1.45000000	         -0.08318969	          2.51697010	         -0.41515498	
          1.46000000	         -0.09500698	          2.38821837	         -0.38260389	
          1.47000000	         -0.10511260	          2.22194513	         -0.35383455	
          1.48000000	         -0.11268774	          2.02562862	         -0.32711636	
          1.49000000	         -0.11727538	          1.80739161	         -0.30064346	
          1.50000000	         -0.11837609	          1.57352026	         -0.27173200	
          1.51000000	         -0.11502489	          1.32503428	         -0.23541517	
          1.52000000	         -0.10748284	          1.06192495	         -0.18890938	
          1.53000000	         -0.09477017	          0.79472715	         -0.13416057	
          1.54000000	         -0.07660338	          0.53310592	         -0.07542137	
          1.55000000	         -0.05612132	          0.27970801	         -0.01620042	
          1.56000000	         -0.03078228	          0.05138340	          0.03802359	
          1.57000000	         -0.00567221	         -0.15548947	          0.08598955	
          1.58000000	          0.01415875	         -0.34092096	          0.12604335	
          1.59000000	          0.03117514	         -0.48469421	          0.15422738	
          1.60000000	          0.04259059	         -0.57593296	          0.16536298	
          1.61000000	          0.04722301	         -0.61561790	          0.16081543	
          1.62000000	          0.04507178	         -0.61085993	          0.14398529	
          1.63000000	          0.03758080	         -0.57352219	          0.11949290	
          1.64000000	          0.02774212	         -0.51832420	          0.09273108	
          1.65000000	          0.01810751	         -0.45484612	          0.06507527	
          1.66000000	          0.01994484	         -0.40087820	          0.05086817	
          1.67000000	          0.02661422	         -0.36822820	          0.04584371	
          1.68000000	          0.03911414	         -0.35262142	          0.04575619	
          1.69000000	          0.05894001	         -0.34704940	          0.04435225	
          1.70000000	          0.07591924	         -0.36265729	          0.03886781	
          1.71000000	          0.09018505	         -0.39710101	          0.03007468	
          1.72000000	          0.10371387	         -0.44404059	          0.01870485	
          1.73000000	          0.11583489	         -0.50249858	          0.00557340	
          1.74000000	          0.12532744	         -0.57546784	         -0.00788491	
          1.75000000	          0.13235202	         -0.66824559	         -0.01904980	
          1.76000000	          0.13823896	         -0.78739459	         -0.02519533	
          1.77000000	          0.14530884	         -0.94081542	         -0.02345779	
          1.78000000	          0.15632544	         -1.13650281	         -0.01127506	
          1.79000000	          0.17371504	         -1.37991949	          0.01276662	
          1.80000000	          0.19855341	         -1.66988392	          0.04744685	
          1.81000000	          0.23025264	         -1.99538302	          0.08820185	
          1.82000000	          0.26597021	         -2.33161162	          0.12520374	
          1.83000000	          0.30507962	         -2.65534867	          0.16006982	
          1.84000000	          0.35272428	         -2.98644900	          0.20701350	
          1.85000000	          0.39262660	         -3.32235240	          0.27511491	
          1.86000000	          0.40809250	         -3.58186658	          0.30964075	
          1.87000000	          0.40110635	         -3.71701840	          0.29412202	
          1.88000000	          0.37282973	         -3.72519567	          0.23663702	
          1.89000000	          0.34441535	         -3.69501426	          0.17972055	
          1.90000000	          0.32126284	         -3.67256084	          0.16006749	
          1.91000000	          0.29391857	         -3.64201342	          0.13853793	
          1.92000000	          0.27708891	         -3.62024052	          0.12518781	
          1.93000000	          0.27455590	         -3.62318763	          0.12614083	
          1.94000000	          0.28906094	         -3.66533018	          0.14806758	
          1.95000000	          0.31926844	         -3.74573908	          0.18983919	
          1.96000000	          0.36096718	         -3.85121127	          0.24408796	
          1.97000000	          0.40752927	         -3.95730096	          0.29738317	
          1.98000000	          0.45070671	         -4.03027632	          0.33139710	
          1.99000000	          0.48188491	         -4.03039993	          0.32516735	
